Coordinates
version=1
nRows=21
nColumns=12
inDegrees=yes

Units are S.I. units (second, meters, Newtons, ...)
Angles are in degrees

endheader
time	SC_y	SC_z	SC_x	AC_y	AC_z	AC_x	GH_y	GH_z	GH_yy	EL_x	PS_y
       0.0              -45.73          8.111          84.47          50.31         -1.799           16.7          65.51          15.86          66.32          139.0           42.4
   0.02843              -45.73          8.112          84.46          50.31         -1.798           16.7          65.51          15.87          66.31          139.0           42.4
   0.05686              -45.73          8.114          84.45          50.31         -1.797          16.69           65.5          15.88           66.3          139.0           42.4
   0.08529              -45.72          8.115          84.44          50.31         -1.796          16.69           65.5          15.88          66.29          139.0           42.4
    0.1137              -45.72          8.117          84.43           50.3         -1.795          16.69           65.5          15.89          66.28          139.0           42.4
    0.1421              -45.72          8.118          84.42           50.3         -1.793          16.68           65.5           15.9          66.27          138.9           42.4
    0.1706              -45.71           8.12          84.41           50.3         -1.792          16.68           65.5           15.9          66.26          138.9           42.4
     0.199              -45.71          8.122           84.4           50.3         -1.791          16.67          65.49          15.91          66.25          138.9           42.4
    0.2274              -45.71          8.124          84.38          50.29         -1.789          16.67          65.49          15.92          66.23          138.9           42.4
    0.2559               -45.7          8.126          84.37          50.29         -1.788          16.67          65.49          15.93          66.22          138.9           42.4
    0.2843               -45.7          8.128          84.35          50.29         -1.786          16.66          65.49          15.94           66.2          138.9           42.4
    0.3127              -45.69          8.131          84.34          50.28         -1.784          16.65          65.48          15.95          66.19          138.8           42.4
    0.3412              -45.69          8.134          84.32          50.28         -1.782          16.65          65.48          15.96          66.17          138.8           42.4
    0.3696              -45.68          8.136           84.3          50.27          -1.78          16.64          65.48          15.98          66.15          138.8           42.4
     0.398              -45.67           8.14          84.28          50.27         -1.778          16.63          65.47          15.99          66.13          138.8           42.4
    0.4264              -45.67          8.143          84.26          50.26         -1.775          16.63          65.47          16.01           66.1          138.7           42.4
    0.4549              -45.66          8.147          84.23          50.26         -1.773          16.62          65.46          16.02          66.08          138.7           42.4
    0.4833              -45.65          8.151           84.2          50.25          -1.77          16.61          65.46          16.04          66.05          138.7           42.4
    0.5117              -45.64          8.155          84.17          50.24         -1.767           16.6          65.45          16.06          66.02          138.6          42.39
    0.5402              -45.63           8.16          84.14          50.24         -1.763          16.59          65.45          16.08          65.99          138.6          42.39
    0.5686              -45.62          8.165          84.11          50.23         -1.759          16.57          65.44          16.11          65.95          138.6          42.39
